<mxfile host="app.diagrams.net" modified="2024-05-22T09:32:25.146Z" agent="Mozilla/5.0 (Macintosh; Intel Mac OS X 10_15_7) AppleWebKit/605.1.15 (KHTML, like Gecko) Version/17.3.1 Safari/605.1.15" etag="BnZNUIYDzGDkZtk_P1yU" version="24.4.4" type="device">
  <diagram name="Page-1" id="rec_O2NxFxvg1IE6ShhW">
    <mxGraphModel dx="1138" dy="658" grid="0" gridSize="10" guides="1" tooltips="1" connect="1" arrows="1" fold="1" page="1" pageScale="1" pageWidth="827" pageHeight="1169" math="0" shadow="0">
      <root>
        <mxCell id="0" />
        <mxCell id="1" parent="0" />
        <mxCell id="8Ai476qbeIyZ9AW1nJz5-8" value="" style="rounded=1;html=1;" parent="1" vertex="1">
          <mxGeometry x="429" y="375" width="274" height="319" as="geometry" />
        </mxCell>
        <mxCell id="8Ai476qbeIyZ9AW1nJz5-3" value="" style="rounded=1;html=1;strokeOpacity=60;fillOpacity=60;opacity=60;textOpacity=70;" parent="1" vertex="1">
          <mxGeometry x="440.5" y="539" width="251" height="144" as="geometry" />
        </mxCell>
        <mxCell id="8Ai476qbeIyZ9AW1nJz5-4" value="Embedding" style="rounded=1;html=1;fillColor=#e1d5e7;strokeColor=#9673a6;strokeOpacity=60;fillOpacity=60;opacity=60;textOpacity=70;" parent="1" vertex="1">
          <mxGeometry x="518.5" y="633" width="95" height="45" as="geometry" />
        </mxCell>
        <mxCell id="8Ai476qbeIyZ9AW1nJz5-5" value="PositionalEncoder&lt;br&gt;&lt;div&gt;(learned)&lt;/div&gt;" style="rounded=1;html=1;fillColor=#f5f5f5;fontColor=#333333;strokeColor=#666666;strokeOpacity=60;fillOpacity=60;opacity=60;textOpacity=70;" parent="1" vertex="1">
          <mxGeometry x="513.5" y="551" width="105" height="45" as="geometry" />
        </mxCell>
        <mxCell id="8Ai476qbeIyZ9AW1nJz5-9" value="" style="rounded=1;html=1;" parent="1" vertex="1">
          <mxGeometry x="464.5" y="384" width="203" height="99" as="geometry" />
        </mxCell>
        <mxCell id="8Ai476qbeIyZ9AW1nJz5-10" value="MLP" style="rounded=1;html=1;fillColor=#dae8fc;strokeColor=#6c8ebf;" parent="1" vertex="1">
          <mxGeometry x="494" y="391" width="144" height="31" as="geometry" />
        </mxCell>
        <mxCell id="8Ai476qbeIyZ9AW1nJz5-12" value="Multi-Head Self Attention" style="rounded=1;html=1;fillColor=#d5e8d4;strokeColor=#82b366;" parent="1" vertex="1">
          <mxGeometry x="494" y="445" width="144" height="31" as="geometry" />
        </mxCell>
        <mxCell id="8Ai476qbeIyZ9AW1nJz5-13" value="&lt;i&gt;&lt;font style=&quot;font-size: 18px;&quot;&gt;6x&lt;/font&gt;&lt;/i&gt;" style="text;html=1;align=center;verticalAlign=middle;resizable=0;points=[];autosize=1;strokeColor=none;fillColor=none;" parent="1" vertex="1">
          <mxGeometry x="424" y="417" width="37" height="33" as="geometry" />
        </mxCell>
        <mxCell id="8Ai476qbeIyZ9AW1nJz5-15" value="" style="endArrow=classic;html=1;rounded=0;" parent="1" edge="1">
          <mxGeometry width="50" height="50" relative="1" as="geometry">
            <mxPoint x="565.75" y="528" as="sourcePoint" />
            <mxPoint x="566.25" y="495" as="targetPoint" />
          </mxGeometry>
        </mxCell>
        <mxCell id="8Ai476qbeIyZ9AW1nJz5-16" value="" style="endArrow=classic;html=1;rounded=0;strokeOpacity=60;fillOpacity=60;opacity=60;textOpacity=70;" parent="1" edge="1">
          <mxGeometry width="50" height="50" relative="1" as="geometry">
            <mxPoint x="565.76" y="625" as="sourcePoint" />
            <mxPoint x="566.01" y="604" as="targetPoint" />
          </mxGeometry>
        </mxCell>
        <mxCell id="8Ai476qbeIyZ9AW1nJz5-17" value="" style="endArrow=classic;html=1;rounded=0;" parent="1" edge="1">
          <mxGeometry width="50" height="50" relative="1" as="geometry">
            <mxPoint x="564.5" y="744" as="sourcePoint" />
            <mxPoint x="564.75" y="703" as="targetPoint" />
          </mxGeometry>
        </mxCell>
        <mxCell id="8Ai476qbeIyZ9AW1nJz5-18" value="" style="endArrow=classic;html=1;rounded=0;" parent="1" edge="1">
          <mxGeometry width="50" height="50" relative="1" as="geometry">
            <mxPoint x="565.93" y="441" as="sourcePoint" />
            <mxPoint x="565.9399999999999" y="426" as="targetPoint" />
          </mxGeometry>
        </mxCell>
        <mxCell id="8Ai476qbeIyZ9AW1nJz5-26" value="Image" style="text;html=1;align=center;verticalAlign=middle;resizable=0;points=[];autosize=1;strokeColor=none;fillColor=none;" parent="1" vertex="1">
          <mxGeometry x="539.5" y="752" width="51" height="26" as="geometry" />
        </mxCell>
        <mxCell id="8Ai476qbeIyZ9AW1nJz5-27" value="" style="endArrow=classic;html=1;rounded=0;" parent="1" edge="1">
          <mxGeometry width="50" height="50" relative="1" as="geometry">
            <mxPoint x="563.08" y="367" as="sourcePoint" />
            <mxPoint x="563.33" y="326" as="targetPoint" />
          </mxGeometry>
        </mxCell>
        <mxCell id="8Ai476qbeIyZ9AW1nJz5-30" value="Prediction" style="text;html=1;align=center;verticalAlign=middle;resizable=0;points=[];autosize=1;strokeColor=none;fillColor=none;" parent="1" vertex="1">
          <mxGeometry x="528" y="297" width="71" height="26" as="geometry" />
        </mxCell>
        <mxCell id="8Ai476qbeIyZ9AW1nJz5-35" value="&lt;b&gt;&lt;font style=&quot;font-size: 18px;&quot;&gt;Teacher&lt;/font&gt;&lt;/b&gt;" style="text;html=1;align=center;verticalAlign=middle;resizable=0;points=[];autosize=1;strokeColor=none;fillColor=none;" parent="1" vertex="1">
          <mxGeometry x="226.5" y="787" width="86" height="33" as="geometry" />
        </mxCell>
        <mxCell id="8Ai476qbeIyZ9AW1nJz5-36" value="&lt;font size=&quot;4&quot;&gt;&lt;b&gt;Student&lt;/b&gt;&lt;/font&gt;" style="text;html=1;align=center;verticalAlign=middle;resizable=0;points=[];autosize=1;strokeColor=none;fillColor=none;" parent="1" vertex="1">
          <mxGeometry x="523.5" y="787" width="85" height="33" as="geometry" />
        </mxCell>
        <mxCell id="8Ai476qbeIyZ9AW1nJz5-38" value="" style="rounded=1;html=1;strokeOpacity=60;fillOpacity=60;opacity=60;" parent="1" vertex="1">
          <mxGeometry x="135" y="375" width="274" height="319" as="geometry" />
        </mxCell>
        <mxCell id="8Ai476qbeIyZ9AW1nJz5-42" value="" style="rounded=1;html=1;strokeOpacity=60;fillOpacity=60;opacity=60;" parent="1" vertex="1">
          <mxGeometry x="170.5" y="384" width="203" height="99" as="geometry" />
        </mxCell>
        <mxCell id="8Ai476qbeIyZ9AW1nJz5-43" value="MLP" style="rounded=1;html=1;fillColor=#dae8fc;strokeColor=#6c8ebf;strokeOpacity=60;fillOpacity=60;opacity=60;textOpacity=60;" parent="1" vertex="1">
          <mxGeometry x="200" y="391" width="144" height="31" as="geometry" />
        </mxCell>
        <mxCell id="8Ai476qbeIyZ9AW1nJz5-44" value="Multi-Head Self Attention" style="rounded=1;html=1;fillColor=#d5e8d4;strokeColor=#82b366;strokeOpacity=60;fillOpacity=60;opacity=60;textOpacity=60;" parent="1" vertex="1">
          <mxGeometry x="200" y="445" width="144" height="31" as="geometry" />
        </mxCell>
        <mxCell id="8Ai476qbeIyZ9AW1nJz5-45" value="&lt;i&gt;&lt;font style=&quot;font-size: 18px;&quot;&gt;12x&lt;/font&gt;&lt;/i&gt;" style="text;html=1;align=center;verticalAlign=middle;resizable=0;points=[];autosize=1;strokeColor=none;fillColor=none;strokeOpacity=60;fillOpacity=60;opacity=60;textOpacity=60;" parent="1" vertex="1">
          <mxGeometry x="125" y="417" width="47" height="33" as="geometry" />
        </mxCell>
        <mxCell id="8Ai476qbeIyZ9AW1nJz5-48" value="" style="endArrow=classic;html=1;rounded=0;strokeOpacity=60;fillOpacity=60;opacity=60;" parent="1" edge="1">
          <mxGeometry width="50" height="50" relative="1" as="geometry">
            <mxPoint x="271.92999999999995" y="441" as="sourcePoint" />
            <mxPoint x="271.93999999999994" y="426" as="targetPoint" />
          </mxGeometry>
        </mxCell>
        <mxCell id="8Ai476qbeIyZ9AW1nJz5-52" value="" style="endArrow=classic;html=1;rounded=0;" parent="1" edge="1">
          <mxGeometry width="50" height="50" relative="1" as="geometry">
            <mxPoint x="269.08000000000004" y="367" as="sourcePoint" />
            <mxPoint x="269.33000000000004" y="326" as="targetPoint" />
          </mxGeometry>
        </mxCell>
        <mxCell id="8Ai476qbeIyZ9AW1nJz5-53" value="Target" style="text;html=1;align=center;verticalAlign=middle;resizable=0;points=[];autosize=1;strokeColor=none;fillColor=none;" parent="1" vertex="1">
          <mxGeometry x="244" y="297" width="51" height="26" as="geometry" />
        </mxCell>
        <mxCell id="8Ai476qbeIyZ9AW1nJz5-50" value="" style="endArrow=none;dashed=1;html=1;rounded=0;" parent="1" edge="1">
          <mxGeometry width="50" height="50" relative="1" as="geometry">
            <mxPoint x="272" y="528" as="sourcePoint" />
            <mxPoint x="567" y="528" as="targetPoint" />
          </mxGeometry>
        </mxCell>
        <mxCell id="8Ai476qbeIyZ9AW1nJz5-46" value="" style="endArrow=classic;html=1;rounded=0;dashed=1;strokeOpacity=100;fillOpacity=100;" parent="1" edge="1">
          <mxGeometry width="50" height="50" relative="1" as="geometry">
            <mxPoint x="272" y="528" as="sourcePoint" />
            <mxPoint x="272.25" y="495" as="targetPoint" />
          </mxGeometry>
        </mxCell>
      </root>
    </mxGraphModel>
  </diagram>
</mxfile>
